G04*
G04 #@! TF.GenerationSoftware,Altium Limited,Altium Designer,25.4.2 (15)*
G04*
G04 Layer_Physical_Order=1*
G04 Layer_Color=255*
%FSLAX44Y44*%
%MOMM*%
G71*
G04*
G04 #@! TF.SameCoordinates,A96A63F0-213E-4ED1-A765-ED1990C429BC*
G04*
G04*
G04 #@! TF.FilePolarity,Positive*
G04*
G01*
G75*
%ADD15C,0.2540*%
%ADD16R,0.7500X0.9000*%
%ADD17R,1.2000X1.4000*%
%ADD18R,0.5000X0.4000*%
%ADD19R,1.4500X0.9500*%
%ADD20R,1.2000X1.2000*%
%ADD21R,0.5000X0.4500*%
%ADD22R,0.9578X1.2621*%
%ADD23R,1.1000X0.8000*%
%ADD24R,1.7000X0.8000*%
%ADD27C,1.5500*%
%ADD28R,1.5500X1.5500*%
%ADD36C,0.3048*%
%ADD37C,0.6350*%
G04:AMPARAMS|DCode=38|XSize=4mm|YSize=1.8mm|CornerRadius=0.45mm|HoleSize=0mm|Usage=FLASHONLY|Rotation=180.000|XOffset=0mm|YOffset=0mm|HoleType=Round|Shape=RoundedRectangle|*
%AMROUNDEDRECTD38*
21,1,4.0000,0.9000,0,0,180.0*
21,1,3.1000,1.8000,0,0,180.0*
1,1,0.9000,-1.5500,0.4500*
1,1,0.9000,1.5500,0.4500*
1,1,0.9000,1.5500,-0.4500*
1,1,0.9000,-1.5500,-0.4500*
%
%ADD38ROUNDEDRECTD38*%
G04:AMPARAMS|DCode=39|XSize=4mm|YSize=1.8mm|CornerRadius=0.45mm|HoleSize=0mm|Usage=FLASHONLY|Rotation=90.000|XOffset=0mm|YOffset=0mm|HoleType=Round|Shape=RoundedRectangle|*
%AMROUNDEDRECTD39*
21,1,4.0000,0.9000,0,0,90.0*
21,1,3.1000,1.8000,0,0,90.0*
1,1,0.9000,0.4500,1.5500*
1,1,0.9000,0.4500,-1.5500*
1,1,0.9000,-0.4500,-1.5500*
1,1,0.9000,-0.4500,1.5500*
%
%ADD39ROUNDEDRECTD39*%
%ADD40C,1.6000*%
%ADD41R,1.6000X1.6000*%
%ADD42C,1.5000*%
%ADD43R,1.5000X1.5000*%
%ADD44C,1.0160*%
G36*
X1127451Y272089D02*
X921059D01*
Y456843D01*
X923599Y457094D01*
X923690Y456637D01*
X924728Y455082D01*
X932348Y447462D01*
X933903Y446424D01*
X935736Y446059D01*
X940306D01*
Y444826D01*
X940789D01*
Y439200D01*
X940479Y437642D01*
Y433544D01*
X937746D01*
Y416496D01*
X952794D01*
X953730Y415480D01*
Y415480D01*
X961000D01*
Y425020D01*
X962270D01*
Y426290D01*
X970810D01*
Y434560D01*
X962371D01*
Y443810D01*
X963870D01*
Y449580D01*
X957580D01*
Y452120D01*
X963870D01*
Y457890D01*
X962371D01*
Y459232D01*
X962006Y461065D01*
X960968Y462620D01*
X957712Y465875D01*
X958764Y468415D01*
X966433D01*
Y484085D01*
X964911D01*
Y498142D01*
X975297Y508528D01*
X977287Y507663D01*
X977681Y507319D01*
Y407811D01*
X969794D01*
Y411544D01*
X955929D01*
X953810Y412560D01*
X953810Y412560D01*
X953810Y412560D01*
X946540D01*
Y403020D01*
X945270D01*
Y401750D01*
X936730D01*
Y393480D01*
X940479D01*
Y388168D01*
X940844Y386334D01*
X941882Y384780D01*
X942059Y384604D01*
Y379150D01*
X940560D01*
Y373380D01*
X946850D01*
Y370840D01*
X940560D01*
Y365070D01*
X942059D01*
Y348742D01*
X942424Y346908D01*
X943462Y345354D01*
X988674Y300142D01*
X990229Y299104D01*
X992062Y298739D01*
X1047750D01*
X1049584Y299104D01*
X1051138Y300142D01*
X1057392Y306396D01*
X1059095Y305940D01*
X1059180D01*
Y314960D01*
X1050160D01*
Y314875D01*
X1050616Y313172D01*
X1046162Y308717D01*
X1043941Y308887D01*
X1042847Y311186D01*
X1043692Y312650D01*
X1044324Y315009D01*
Y317451D01*
X1043692Y319810D01*
X1042471Y321924D01*
X1040744Y323651D01*
X1038630Y324872D01*
X1036271Y325504D01*
X1033829D01*
X1031470Y324872D01*
X1029356Y323651D01*
X1027629Y321924D01*
X1026408Y319810D01*
X1025776Y317451D01*
Y315009D01*
X1026408Y312650D01*
X1027441Y310861D01*
X1027060Y309620D01*
X1026251Y308321D01*
X1018449D01*
X1017640Y309620D01*
X1017259Y310861D01*
X1018292Y312650D01*
X1018924Y315009D01*
Y317451D01*
X1018292Y319810D01*
X1017071Y321924D01*
X1015344Y323651D01*
X1013230Y324872D01*
X1010871Y325504D01*
X1008429D01*
X1006070Y324872D01*
X1005647Y324628D01*
X1000459Y329816D01*
X1001026Y332356D01*
X1002598Y332356D01*
X1018924D01*
Y350904D01*
X1002598D01*
X1000376Y350904D01*
X1000058Y353312D01*
Y376411D01*
X1018960Y395312D01*
X1019633Y396321D01*
X1019870Y397510D01*
Y489695D01*
X1068060Y537885D01*
X1068397Y537691D01*
X1070692Y537076D01*
X1073068D01*
X1075363Y537691D01*
X1077421Y538879D01*
X1079101Y540559D01*
X1079467Y541194D01*
X1082527Y541714D01*
X1082548Y541706D01*
X1085431Y538823D01*
X1086439Y538149D01*
X1087628Y537912D01*
X1094526D01*
Y537496D01*
X1102574D01*
Y537912D01*
X1107183D01*
X1108138Y537722D01*
X1113576D01*
Y537306D01*
X1121624D01*
Y544290D01*
X1122640D01*
Y547560D01*
X1117600D01*
Y550100D01*
X1122640D01*
Y553370D01*
X1120708D01*
Y556260D01*
X1120471Y557449D01*
X1120056Y558070D01*
X1120460Y559448D01*
X1121237Y560610D01*
X1121370D01*
Y563880D01*
X1116330D01*
Y566420D01*
X1121370D01*
Y569690D01*
X1120354D01*
Y576674D01*
X1112306D01*
Y576258D01*
X1090706D01*
X1089517Y576021D01*
X1088509Y575348D01*
X1087769Y574608D01*
X1080390D01*
X1080289Y574983D01*
X1079101Y577041D01*
X1077421Y578721D01*
X1075363Y579909D01*
X1073068Y580524D01*
X1070692D01*
X1068397Y579909D01*
X1066339Y578721D01*
X1065082Y577464D01*
X1063335Y577875D01*
X1062542Y578374D01*
Y588447D01*
X1065082Y589500D01*
X1065715Y588866D01*
X1068005Y587544D01*
X1070558Y586860D01*
X1070610D01*
Y596900D01*
X1073150D01*
Y586860D01*
X1073202D01*
X1075755Y587544D01*
X1078045Y588866D01*
X1079914Y590735D01*
X1081236Y593025D01*
X1081441Y593792D01*
X1102710D01*
Y588360D01*
X1109980D01*
Y596900D01*
Y605440D01*
X1102710D01*
Y600008D01*
X1081441D01*
X1081236Y600775D01*
X1080214Y602546D01*
X1080320Y604001D01*
X1081000Y605571D01*
X1081960Y606212D01*
X1090088Y614340D01*
X1091126Y615895D01*
X1091491Y617728D01*
Y855986D01*
X1093550Y856395D01*
X1095543Y857727D01*
X1096874Y859720D01*
X1097342Y862070D01*
Y893070D01*
X1096874Y895420D01*
X1095543Y897413D01*
X1093550Y898745D01*
X1091200Y899212D01*
X1082200D01*
X1079849Y898745D01*
X1077857Y897413D01*
X1076525Y895420D01*
X1076058Y893070D01*
Y862070D01*
X1076525Y859720D01*
X1077857Y857727D01*
X1079849Y856395D01*
X1081909Y855986D01*
Y755058D01*
X1079369Y754377D01*
X1079101Y754841D01*
X1077421Y756521D01*
X1075363Y757709D01*
X1073068Y758324D01*
X1070692D01*
X1068397Y757709D01*
X1066339Y756521D01*
X1064659Y754841D01*
X1063471Y752783D01*
X1062856Y750488D01*
Y748112D01*
X1063471Y745817D01*
X1064659Y743759D01*
X1066339Y742079D01*
X1068397Y740891D01*
X1070692Y740276D01*
X1073068D01*
X1075363Y740891D01*
X1077421Y742079D01*
X1079101Y743759D01*
X1079369Y744223D01*
X1081909Y743542D01*
Y729658D01*
X1079369Y728977D01*
X1079101Y729441D01*
X1077421Y731121D01*
X1075363Y732309D01*
X1073068Y732924D01*
X1070692D01*
X1068397Y732309D01*
X1066339Y731121D01*
X1064659Y729441D01*
X1063471Y727383D01*
X1062856Y725088D01*
Y722712D01*
X1063471Y720417D01*
X1064659Y718359D01*
X1066339Y716679D01*
X1068397Y715491D01*
X1070692Y714876D01*
X1073068D01*
X1075363Y715491D01*
X1077421Y716679D01*
X1079101Y718359D01*
X1079369Y718823D01*
X1081909Y718142D01*
Y704258D01*
X1079369Y703577D01*
X1079101Y704041D01*
X1077421Y705721D01*
X1075363Y706909D01*
X1073068Y707524D01*
X1070692D01*
X1068397Y706909D01*
X1066339Y705721D01*
X1064659Y704041D01*
X1063471Y701983D01*
X1062856Y699688D01*
Y697312D01*
X1063471Y695017D01*
X1064659Y692959D01*
X1066339Y691279D01*
X1068397Y690091D01*
X1070692Y689476D01*
X1073068D01*
X1075363Y690091D01*
X1077421Y691279D01*
X1079101Y692959D01*
X1079369Y693423D01*
X1081909Y692742D01*
Y678857D01*
X1079369Y678177D01*
X1079101Y678641D01*
X1077421Y680321D01*
X1075363Y681509D01*
X1073068Y682124D01*
X1070692D01*
X1068397Y681509D01*
X1066339Y680321D01*
X1064659Y678641D01*
X1063471Y676583D01*
X1062856Y674288D01*
Y671912D01*
X1063471Y669617D01*
X1064659Y667559D01*
X1066339Y665879D01*
X1068397Y664691D01*
X1070692Y664076D01*
X1073068D01*
X1075363Y664691D01*
X1077421Y665879D01*
X1079101Y667559D01*
X1079369Y668023D01*
X1081909Y667343D01*
Y653457D01*
X1079369Y652777D01*
X1079101Y653241D01*
X1077421Y654921D01*
X1075363Y656109D01*
X1073068Y656724D01*
X1070692D01*
X1068397Y656109D01*
X1066339Y654921D01*
X1064659Y653241D01*
X1063471Y651183D01*
X1062856Y648888D01*
Y646512D01*
X1063471Y644217D01*
X1064659Y642159D01*
X1066339Y640479D01*
X1068397Y639291D01*
X1070692Y638676D01*
X1073068D01*
X1075363Y639291D01*
X1077421Y640479D01*
X1079101Y642159D01*
X1079369Y642623D01*
X1081909Y641943D01*
Y628058D01*
X1079369Y627377D01*
X1079101Y627841D01*
X1077421Y629521D01*
X1075363Y630709D01*
X1073068Y631324D01*
X1070692D01*
X1068397Y630709D01*
X1066339Y629521D01*
X1064659Y627841D01*
X1063471Y625783D01*
X1062856Y623488D01*
Y621112D01*
X1063471Y618817D01*
X1064560Y616931D01*
X1064364Y616189D01*
X1063435Y614391D01*
X1004125D01*
X1003196Y616189D01*
X1003000Y616931D01*
X1004089Y618817D01*
X1004704Y621112D01*
Y623488D01*
X1004089Y625783D01*
X1002901Y627841D01*
X1001221Y629521D01*
X999163Y630709D01*
X996868Y631324D01*
X994492D01*
X992197Y630709D01*
X990139Y629521D01*
X988459Y627841D01*
X987271Y625783D01*
X986656Y623488D01*
Y621112D01*
X987271Y618817D01*
X988459Y616759D01*
X987498Y614128D01*
X986989Y614026D01*
X985434Y612988D01*
X974766Y602320D01*
X973728Y600765D01*
X973363Y598932D01*
Y520145D01*
X956732Y503514D01*
X955694Y501959D01*
X955329Y500126D01*
Y485606D01*
X954205Y484482D01*
X951498Y484642D01*
X950368Y486252D01*
Y515602D01*
X953562Y518796D01*
X965834D01*
Y537844D01*
X950528D01*
X949556Y540191D01*
X953048Y543682D01*
X954922Y543180D01*
X955040D01*
Y552450D01*
X945770D01*
Y552332D01*
X946272Y550458D01*
X936412Y540598D01*
X935374Y539044D01*
X935009Y537210D01*
Y535384D01*
X933745Y534121D01*
X933329Y533498D01*
X932260Y532567D01*
X930118Y532572D01*
X929903Y532696D01*
X928223Y533146D01*
X926485D01*
X924805Y532696D01*
X923599Y532000D01*
X922432Y532350D01*
X921059Y533178D01*
Y926791D01*
X1127451D01*
Y272089D01*
D02*
G37*
G36*
X1063387Y602269D02*
X1062524Y600775D01*
X1061893Y598420D01*
X1057236Y593764D01*
X1056563Y592755D01*
X1056326Y591566D01*
Y564134D01*
X1056563Y562945D01*
X1057236Y561936D01*
X1062570Y556603D01*
X1063579Y555929D01*
X1064768Y555692D01*
X1065366D01*
X1066100Y553904D01*
X1066170Y553152D01*
X1064659Y551641D01*
X1063471Y549583D01*
X1062856Y547288D01*
Y544912D01*
X1063471Y542617D01*
X1063665Y542280D01*
X1015457Y494072D01*
X1012917Y495124D01*
Y559054D01*
X1012552Y560887D01*
X1011514Y562442D01*
X1005310Y568646D01*
X1005720Y570178D01*
Y570230D01*
X996950D01*
Y561460D01*
X997002D01*
X998534Y561870D01*
X1003226Y557178D01*
X1003093Y554630D01*
X1002293Y554070D01*
X1000795Y553567D01*
X999163Y554509D01*
X996868Y555124D01*
X994492D01*
X992197Y554509D01*
X990139Y553321D01*
X988459Y551641D01*
X987271Y549583D01*
X986656Y547288D01*
Y544912D01*
X987271Y542617D01*
X988459Y540559D01*
X990139Y538879D01*
X992197Y537691D01*
X994492Y537076D01*
X996868D01*
X999163Y537691D01*
X1000795Y538633D01*
X1002293Y538130D01*
X1003335Y537401D01*
Y529399D01*
X1002293Y528670D01*
X1000795Y528167D01*
X999163Y529109D01*
X996868Y529724D01*
X994492D01*
X992197Y529109D01*
X990139Y527921D01*
X988459Y526241D01*
X987271Y524183D01*
X986656Y521888D01*
Y519512D01*
X986798Y518981D01*
X985068Y517326D01*
X982945Y518411D01*
Y596004D01*
X984116Y596894D01*
X986656Y595712D01*
X987271Y593417D01*
X988459Y591359D01*
X990139Y589679D01*
X992197Y588491D01*
X994492Y587876D01*
X996868D01*
X999163Y588491D01*
X1001221Y589679D01*
X1002901Y591359D01*
X1004089Y593417D01*
X1004704Y595712D01*
Y598088D01*
X1004089Y600383D01*
X1003000Y602269D01*
X1003196Y603011D01*
X1004125Y604809D01*
X1062264D01*
X1063387Y602269D01*
D02*
G37*
G36*
X1111290Y560610D02*
X1113222D01*
Y557530D01*
X1113459Y556341D01*
X1113747Y555910D01*
X1113595Y555481D01*
X1112560Y553370D01*
X1110535Y552128D01*
X1103590D01*
Y553560D01*
X1099820D01*
Y549020D01*
X1098550D01*
Y547750D01*
X1093510D01*
Y544480D01*
X1091116Y544128D01*
X1088915D01*
X1084745Y548298D01*
X1083737Y548971D01*
X1082548Y549208D01*
X1080390D01*
X1080289Y549583D01*
X1079101Y551641D01*
X1077590Y553152D01*
X1077660Y553904D01*
X1078394Y555692D01*
X1087628D01*
X1088817Y555929D01*
X1089826Y556603D01*
X1095265Y562042D01*
X1111290D01*
Y560610D01*
D02*
G37*
G36*
X1012685Y407343D02*
X1013654Y406724D01*
Y398797D01*
X995645Y380788D01*
X993105Y381840D01*
Y389683D01*
X1011114Y407693D01*
X1012685Y407343D01*
D02*
G37*
G36*
X990139Y411879D02*
X992197Y410691D01*
X994492Y410076D01*
X996354D01*
X997192Y408814D01*
X997497Y407626D01*
X984926Y395056D01*
X983888Y393502D01*
X983523Y391668D01*
Y367744D01*
X978202Y362423D01*
X958035D01*
X957185Y363546D01*
X958448Y366086D01*
X964124D01*
Y378134D01*
X963641D01*
Y383842D01*
X965658Y385858D01*
X966696Y387412D01*
X967061Y389246D01*
Y394496D01*
X969794D01*
Y398229D01*
X979678D01*
X981512Y398593D01*
X983066Y399632D01*
X985860Y402426D01*
X986898Y403980D01*
X987263Y405814D01*
Y411163D01*
X989803Y412215D01*
X990139Y411879D01*
D02*
G37*
G36*
X992873Y361623D02*
X993842Y361004D01*
Y328930D01*
X994079Y327741D01*
X994753Y326732D01*
X1001252Y320233D01*
X1001008Y319810D01*
X1000376Y317451D01*
Y315009D01*
X1001008Y312650D01*
X1002041Y310861D01*
X1001660Y309620D01*
X1000851Y308321D01*
X994046D01*
X952975Y349393D01*
X952895Y349586D01*
X953113Y350891D01*
X954978Y352841D01*
X980186D01*
X982020Y353206D01*
X983574Y354244D01*
X991302Y361973D01*
X992873Y361623D01*
D02*
G37*
%LPC*%
G36*
X1033200Y900171D02*
X1029970D01*
Y878840D01*
X1040301D01*
Y893070D01*
X1040059Y894908D01*
X1039349Y896620D01*
X1038221Y898091D01*
X1036750Y899219D01*
X1035038Y899929D01*
X1033200Y900171D01*
D02*
G37*
G36*
X1027430D02*
X1024200D01*
X1022362Y899929D01*
X1020650Y899219D01*
X1019179Y898091D01*
X1018051Y896620D01*
X1017341Y894908D01*
X1017099Y893070D01*
Y878840D01*
X1027430D01*
Y900171D01*
D02*
G37*
G36*
X1072200Y841171D02*
X1057970D01*
Y830840D01*
X1079301D01*
Y834070D01*
X1079059Y835908D01*
X1078349Y837620D01*
X1077221Y839091D01*
X1075750Y840219D01*
X1074038Y840929D01*
X1072200Y841171D01*
D02*
G37*
G36*
X1079301Y828300D02*
X1057970D01*
Y817969D01*
X1072200D01*
X1074038Y818211D01*
X1075750Y818921D01*
X1077221Y820049D01*
X1078349Y821520D01*
X1079059Y823232D01*
X1079301Y825070D01*
Y828300D01*
D02*
G37*
G36*
X1040301Y876300D02*
X1028700D01*
X1017099D01*
Y862070D01*
X1017341Y860232D01*
X1018051Y858520D01*
X1019179Y857049D01*
X1020650Y855921D01*
X1022362Y855211D01*
X1024200Y854969D01*
X1024786D01*
X1025312Y854182D01*
X1037016Y842479D01*
X1036537Y839366D01*
X1036179Y839091D01*
X1035051Y837620D01*
X1034341Y835908D01*
X1034137Y834361D01*
X989844D01*
X988011Y833997D01*
X986456Y832958D01*
X930824Y777326D01*
X929786Y775771D01*
X929421Y773938D01*
Y722902D01*
X929786Y721068D01*
X930824Y719514D01*
X935396Y714942D01*
X936390Y714278D01*
Y711790D01*
X942639D01*
Y704813D01*
X934220Y696394D01*
X933182Y694839D01*
X932817Y693006D01*
Y634961D01*
X930279D01*
Y627380D01*
X937608D01*
Y624840D01*
X930279D01*
Y617259D01*
X932817D01*
Y572422D01*
X933182Y570588D01*
X934220Y569034D01*
X946272Y556982D01*
X945770Y555108D01*
Y554990D01*
X955040D01*
Y564260D01*
X954922D01*
X953048Y563758D01*
X942399Y574407D01*
Y617254D01*
X944937Y617259D01*
X947361Y616980D01*
Y604614D01*
X947726Y602780D01*
X948764Y601226D01*
X951519Y598471D01*
Y587351D01*
X950462Y586741D01*
X948689Y584968D01*
X947435Y582796D01*
X946786Y580374D01*
Y577866D01*
X947435Y575444D01*
X948689Y573272D01*
X950462Y571499D01*
X952634Y570245D01*
X955056Y569596D01*
X957564D01*
X959986Y570245D01*
X962158Y571499D01*
X963931Y573272D01*
X965185Y575444D01*
X965834Y577866D01*
Y580374D01*
X965185Y582796D01*
X963931Y584968D01*
X962158Y586741D01*
X961101Y587351D01*
Y600456D01*
X960736Y602289D01*
X959698Y603844D01*
X956943Y606599D01*
Y618275D01*
X958465D01*
Y633945D01*
X956943D01*
Y652066D01*
X960968Y656090D01*
X962006Y657645D01*
X962371Y659478D01*
Y670087D01*
X967232D01*
X969065Y670452D01*
X970620Y671490D01*
X982304Y683174D01*
X983342Y684728D01*
X983707Y686562D01*
Y730552D01*
X993432Y740276D01*
X1004704D01*
Y758324D01*
X986656D01*
Y754091D01*
X975041D01*
X973414Y755718D01*
X971860Y756757D01*
X970026Y757121D01*
X957454D01*
Y757854D01*
X939003D01*
Y771954D01*
X991829Y824779D01*
X1034137D01*
X1034341Y823232D01*
X1035051Y821520D01*
X1036179Y820049D01*
X1037650Y818921D01*
X1039362Y818211D01*
X1041200Y817969D01*
X1055430D01*
Y829570D01*
Y841171D01*
X1051875D01*
X1038084Y854961D01*
X1038221Y857049D01*
X1039349Y858520D01*
X1040059Y860232D01*
X1040301Y862070D01*
Y876300D01*
D02*
G37*
G36*
X996868Y732924D02*
X994492D01*
X992197Y732309D01*
X990139Y731121D01*
X988459Y729441D01*
X987271Y727383D01*
X986656Y725088D01*
Y722712D01*
X987271Y720417D01*
X988459Y718359D01*
X990139Y716679D01*
X992197Y715491D01*
X994492Y714876D01*
X996868D01*
X999163Y715491D01*
X1001221Y716679D01*
X1002901Y718359D01*
X1004089Y720417D01*
X1004704Y722712D01*
Y725088D01*
X1004089Y727383D01*
X1002901Y729441D01*
X1001221Y731121D01*
X999163Y732309D01*
X996868Y732924D01*
D02*
G37*
G36*
Y707524D02*
X994492D01*
X992197Y706909D01*
X990139Y705721D01*
X988459Y704041D01*
X987271Y701983D01*
X986656Y699688D01*
Y697312D01*
X987271Y695017D01*
X988459Y692959D01*
X990139Y691279D01*
X992197Y690091D01*
X994492Y689476D01*
X996868D01*
X999163Y690091D01*
X1001221Y691279D01*
X1002901Y692959D01*
X1004089Y695017D01*
X1004704Y697312D01*
Y699688D01*
X1004089Y701983D01*
X1002901Y704041D01*
X1001221Y705721D01*
X999163Y706909D01*
X996868Y707524D01*
D02*
G37*
G36*
Y682124D02*
X994492D01*
X992197Y681509D01*
X990139Y680321D01*
X988459Y678641D01*
X987271Y676583D01*
X986656Y674288D01*
Y671912D01*
X987271Y669617D01*
X988459Y667559D01*
X990139Y665879D01*
X992197Y664691D01*
X994492Y664076D01*
X996868D01*
X999163Y664691D01*
X1001221Y665879D01*
X1002901Y667559D01*
X1004089Y669617D01*
X1004704Y671912D01*
Y674288D01*
X1004089Y676583D01*
X1002901Y678641D01*
X1001221Y680321D01*
X999163Y681509D01*
X996868Y682124D01*
D02*
G37*
G36*
Y656724D02*
X994492D01*
X992197Y656109D01*
X990139Y654921D01*
X988459Y653241D01*
X987271Y651183D01*
X986656Y648888D01*
Y646512D01*
X987271Y644217D01*
X988459Y642159D01*
X990139Y640479D01*
X992197Y639291D01*
X994492Y638676D01*
X996868D01*
X999163Y639291D01*
X1001221Y640479D01*
X1002901Y642159D01*
X1004089Y644217D01*
X1004704Y646512D01*
Y648888D01*
X1004089Y651183D01*
X1002901Y653241D01*
X1001221Y654921D01*
X999163Y656109D01*
X996868Y656724D01*
D02*
G37*
G36*
X1118774Y625424D02*
X1103726D01*
Y610376D01*
X1118774D01*
Y625424D01*
D02*
G37*
G36*
X1119790Y605440D02*
X1112520D01*
Y598170D01*
X1119790D01*
Y605440D01*
D02*
G37*
G36*
Y595630D02*
X1112520D01*
Y588360D01*
X1119790D01*
Y595630D01*
D02*
G37*
G36*
X957698Y564260D02*
X957580D01*
Y554990D01*
X966850D01*
Y555108D01*
X966132Y557788D01*
X964744Y560192D01*
X962782Y562154D01*
X960378Y563542D01*
X957698Y564260D01*
D02*
G37*
G36*
X966850Y552450D02*
X957580D01*
Y543180D01*
X957698D01*
X960378Y543898D01*
X962782Y545286D01*
X964744Y547248D01*
X966132Y549652D01*
X966850Y552332D01*
Y552450D01*
D02*
G37*
G36*
X1073068Y504324D02*
X1070692D01*
X1068397Y503709D01*
X1066339Y502521D01*
X1064659Y500841D01*
X1063471Y498783D01*
X1062856Y496488D01*
Y494112D01*
X1063471Y491817D01*
X1064659Y489759D01*
X1066339Y488079D01*
X1068397Y486891D01*
X1070692Y486276D01*
X1073068D01*
X1075363Y486891D01*
X1077421Y488079D01*
X1079101Y489759D01*
X1080289Y491817D01*
X1080904Y494112D01*
Y496488D01*
X1080289Y498783D01*
X1079101Y500841D01*
X1077421Y502521D01*
X1075363Y503709D01*
X1073068Y504324D01*
D02*
G37*
G36*
Y529724D02*
X1070692D01*
X1068397Y529109D01*
X1066339Y527921D01*
X1064659Y526241D01*
X1063471Y524183D01*
X1062856Y521888D01*
Y519512D01*
X1063080Y518676D01*
X1031662Y487258D01*
X1030624Y485704D01*
X1030259Y483870D01*
Y349573D01*
X1029356Y349051D01*
X1027629Y347324D01*
X1026408Y345210D01*
X1025776Y342851D01*
Y340409D01*
X1026408Y338050D01*
X1027629Y335936D01*
X1029356Y334209D01*
X1031470Y332988D01*
X1033829Y332356D01*
X1036271D01*
X1038630Y332988D01*
X1040744Y334209D01*
X1042471Y335936D01*
X1043692Y338050D01*
X1044324Y340409D01*
Y342851D01*
X1043692Y345210D01*
X1042471Y347324D01*
X1040744Y349051D01*
X1039841Y349573D01*
Y481885D01*
X1069856Y511900D01*
X1070692Y511676D01*
X1073068D01*
X1073904Y511900D01*
X1096842Y488962D01*
X1098397Y487924D01*
X1100230Y487559D01*
X1101206D01*
Y486076D01*
X1118754D01*
Y498624D01*
X1101206D01*
X1101206Y498624D01*
Y498624D01*
X1099319Y500036D01*
X1080680Y518676D01*
X1080904Y519512D01*
Y521888D01*
X1080289Y524183D01*
X1079101Y526241D01*
X1077421Y527921D01*
X1075363Y529109D01*
X1073068Y529724D01*
D02*
G37*
G36*
X1118754Y479124D02*
X1101206D01*
Y466576D01*
X1118754D01*
Y479124D01*
D02*
G37*
G36*
X1073068Y478924D02*
X1070692D01*
X1068397Y478309D01*
X1066339Y477121D01*
X1064659Y475441D01*
X1063471Y473383D01*
X1062856Y471088D01*
Y468712D01*
X1063080Y467876D01*
X1056046Y460842D01*
X1055008Y459287D01*
X1054643Y457454D01*
Y415798D01*
X1055008Y413965D01*
X1055659Y412990D01*
Y349573D01*
X1054756Y349051D01*
X1053029Y347324D01*
X1051808Y345210D01*
X1051176Y342851D01*
Y340409D01*
X1051808Y338050D01*
X1053029Y335936D01*
X1054756Y334209D01*
X1056870Y332988D01*
X1059229Y332356D01*
X1061671D01*
X1064030Y332988D01*
X1066144Y334209D01*
X1067871Y335936D01*
X1069092Y338050D01*
X1069724Y340409D01*
Y342851D01*
X1069092Y345210D01*
X1067871Y347324D01*
X1066144Y349051D01*
X1065241Y349573D01*
Y409580D01*
X1067781Y411046D01*
X1068397Y410691D01*
X1070692Y410076D01*
X1073068D01*
X1075363Y410691D01*
X1077421Y411879D01*
X1079101Y413559D01*
X1080289Y415617D01*
X1080904Y417912D01*
Y420288D01*
X1080289Y422583D01*
X1079101Y424641D01*
X1077421Y426321D01*
X1075363Y427509D01*
X1073068Y428124D01*
X1070692D01*
X1068397Y427509D01*
X1066765Y426567D01*
X1065267Y427070D01*
X1064225Y427799D01*
Y435801D01*
X1065267Y436530D01*
X1066765Y437033D01*
X1068397Y436091D01*
X1070692Y435476D01*
X1073068D01*
X1075363Y436091D01*
X1077421Y437279D01*
X1079101Y438959D01*
X1080289Y441017D01*
X1080904Y443312D01*
Y445688D01*
X1080289Y447983D01*
X1079101Y450041D01*
X1077421Y451721D01*
X1075363Y452909D01*
X1073068Y453524D01*
X1070692D01*
X1068397Y452909D01*
X1066765Y451967D01*
X1065267Y452470D01*
X1064467Y453030D01*
X1064334Y455578D01*
X1069856Y461100D01*
X1070692Y460876D01*
X1073068D01*
X1075363Y461491D01*
X1077421Y462679D01*
X1079101Y464359D01*
X1080289Y466417D01*
X1080904Y468712D01*
Y471088D01*
X1080289Y473383D01*
X1079101Y475441D01*
X1077421Y477121D01*
X1075363Y478309D01*
X1073068Y478924D01*
D02*
G37*
G36*
X970810Y423750D02*
X963540D01*
Y415480D01*
X970810D01*
Y423750D01*
D02*
G37*
G36*
X944000Y412560D02*
X936730D01*
Y404290D01*
X944000D01*
Y412560D01*
D02*
G37*
G36*
X1061805Y326520D02*
X1061720D01*
Y317500D01*
X1070740D01*
Y317585D01*
X1070039Y320202D01*
X1068684Y322548D01*
X1066768Y324464D01*
X1064422Y325819D01*
X1061805Y326520D01*
D02*
G37*
G36*
X1059180D02*
X1059095D01*
X1056478Y325819D01*
X1054132Y324464D01*
X1052216Y322548D01*
X1050861Y320202D01*
X1050160Y317585D01*
Y317500D01*
X1059180D01*
Y326520D01*
D02*
G37*
G36*
X1070740Y314960D02*
X1061720D01*
Y305940D01*
X1061805D01*
X1064422Y306641D01*
X1066768Y307996D01*
X1068684Y309912D01*
X1070039Y312258D01*
X1070740Y314875D01*
Y314960D01*
D02*
G37*
%LPD*%
G36*
X969668Y745912D02*
X971223Y744874D01*
X973056Y744509D01*
X980795D01*
X981767Y742162D01*
X975528Y735924D01*
X974490Y734370D01*
X971970Y734722D01*
Y741870D01*
X965200D01*
Y735330D01*
X963930D01*
Y734060D01*
X955890D01*
Y733565D01*
X947195Y724870D01*
X939020D01*
X939003Y724886D01*
Y746806D01*
X957454D01*
Y747539D01*
X968042D01*
X969668Y745912D01*
D02*
G37*
G36*
X971970Y728790D02*
X974125Y727860D01*
Y688547D01*
X965247Y679669D01*
X962371D01*
Y681990D01*
X962006Y683823D01*
X961604Y684426D01*
Y685764D01*
X960390D01*
X959413Y686416D01*
X957580Y686781D01*
X955747Y686416D01*
X954770Y685764D01*
X952890D01*
X951913Y686416D01*
X950080Y686781D01*
X948246Y686416D01*
X947270Y685764D01*
X946056D01*
Y684426D01*
X945654Y683823D01*
X945289Y681990D01*
Y675266D01*
X945654Y673433D01*
X946692Y671878D01*
X947080Y671490D01*
X948634Y670452D01*
X950468Y670087D01*
X952789D01*
Y661462D01*
X948764Y657438D01*
X947726Y655883D01*
X947361Y654050D01*
Y635240D01*
X944937Y634961D01*
X944937Y634961D01*
X942399D01*
Y691021D01*
X950818Y699440D01*
X951857Y700995D01*
X952221Y702828D01*
Y711790D01*
X958470D01*
Y717060D01*
X947430D01*
Y719600D01*
X958470D01*
Y722594D01*
X964666Y728790D01*
X971970D01*
Y728790D01*
D02*
G37*
%LPC*%
G36*
X962660Y741870D02*
X955890D01*
Y736600D01*
X962660D01*
Y741870D01*
D02*
G37*
G36*
X997002Y581540D02*
X996950D01*
Y572770D01*
X1005720D01*
Y572822D01*
X1005036Y575375D01*
X1003714Y577665D01*
X1001845Y579534D01*
X999555Y580856D01*
X997002Y581540D01*
D02*
G37*
G36*
X994410D02*
X994358D01*
X991805Y580856D01*
X989515Y579534D01*
X987646Y577665D01*
X986324Y575375D01*
X985640Y572822D01*
Y572770D01*
X994410D01*
Y581540D01*
D02*
G37*
G36*
Y570230D02*
X985640D01*
Y570178D01*
X986324Y567625D01*
X987646Y565335D01*
X989515Y563466D01*
X991805Y562144D01*
X994358Y561460D01*
X994410D01*
Y570230D01*
D02*
G37*
G36*
X1097280Y553560D02*
X1093510D01*
Y550290D01*
X1097280D01*
Y553560D01*
D02*
G37*
%LPD*%
D15*
X918210Y269240D02*
X1130300D01*
X918210Y929640D02*
X1130300D01*
Y269240D02*
Y929640D01*
X918210Y269240D02*
Y929640D01*
D16*
X946850Y372110D02*
D03*
X958850D02*
D03*
X957580Y450850D02*
D03*
X945580D02*
D03*
D17*
X945270Y403020D02*
D03*
Y425020D02*
D03*
X962270D02*
D03*
Y403020D02*
D03*
D18*
X1098550Y541020D02*
D03*
Y549020D02*
D03*
X1117600Y548830D02*
D03*
Y540830D02*
D03*
X1116330Y573150D02*
D03*
Y565150D02*
D03*
D19*
X1109980Y492350D02*
D03*
Y472850D02*
D03*
D20*
X1111250Y617900D02*
D03*
Y596900D02*
D03*
D21*
X950080Y681990D02*
D03*
X957580D02*
D03*
D22*
X945576Y476250D02*
D03*
X960120D02*
D03*
X937608Y626110D02*
D03*
X952152D02*
D03*
D23*
X963930Y735330D02*
D03*
D24*
X947430Y752330D02*
D03*
Y718330D02*
D03*
D27*
X1060450Y316230D02*
D03*
X1035050D02*
D03*
X1009650D02*
D03*
X1060450Y341630D02*
D03*
X1035050D02*
D03*
D28*
X1009650D02*
D03*
D36*
X1089056Y571500D02*
X1090706Y573150D01*
X1116330D01*
X1071880Y571500D02*
X1089056D01*
X1071880Y596900D02*
X1091438D01*
X1111250D01*
X1064768D02*
X1071880D01*
X1016762Y490982D02*
X1071880Y546100D01*
X1016762Y397510D02*
Y490982D01*
X996950Y377698D02*
X1016762Y397510D01*
X996950Y328930D02*
Y377698D01*
Y328930D02*
X1009650Y316230D01*
X1059434Y591566D02*
X1064768Y596900D01*
X1059434Y564134D02*
Y591566D01*
Y564134D02*
X1064768Y558800D01*
X1087628D01*
X1093978Y565150D01*
X1116330D01*
X1115822Y548830D02*
X1117600D01*
X1115632Y549020D02*
X1115822Y548830D01*
X1098550Y549020D02*
X1115632D01*
X1116330Y557530D02*
Y565150D01*
Y557530D02*
X1117600Y556260D01*
Y548830D02*
Y556260D01*
X1087628Y541020D02*
X1098550D01*
X1082548Y546100D02*
X1087628Y541020D01*
X1071880Y546100D02*
X1082548D01*
X1108138Y540830D02*
X1117600D01*
X1107948Y541020D02*
X1108138Y540830D01*
X1098550Y541020D02*
X1107948D01*
D37*
X927354Y509524D02*
X928116Y508762D01*
X939800Y533400D02*
Y537210D01*
X956310Y553720D01*
X937133Y530733D02*
X939800Y533400D01*
X937133Y518048D02*
Y530733D01*
X927354Y509524D02*
Y526542D01*
X928116Y458470D02*
Y508762D01*
X957580Y425020D02*
Y450850D01*
X946850Y348742D02*
Y365760D01*
X937608Y572422D02*
Y626110D01*
Y572422D02*
X956310Y553720D01*
X1047750Y303530D02*
X1060450Y316230D01*
X992062Y303530D02*
X1047750D01*
X946850Y348742D02*
X992062Y303530D01*
X1100230Y492350D02*
X1109980D01*
X1071880Y520700D02*
X1100230Y492350D01*
X952152Y626110D02*
Y654050D01*
X957580Y659478D01*
Y681990D01*
X950080Y675266D02*
Y681990D01*
Y675266D02*
X950468Y674878D01*
X967232D01*
X978916Y686562D01*
Y732536D01*
X995680Y749300D01*
X1028700Y857570D02*
Y877570D01*
Y857570D02*
X1056700Y829570D01*
X938784Y718330D02*
X947430D01*
X934212Y722902D02*
X938784Y718330D01*
X934212Y722902D02*
Y773938D01*
X989844Y829570D01*
X1056700D01*
X946850Y365760D02*
Y372110D01*
Y365760D02*
X954978Y357632D01*
X980186D01*
X988314Y365760D01*
Y391668D01*
X1008126Y411480D01*
Y559054D01*
X995680Y571500D02*
X1008126Y559054D01*
X947430Y702828D02*
Y718330D01*
X937608Y693006D02*
X947430Y702828D01*
X937608Y626110D02*
Y693006D01*
X945576Y476250D02*
Y517587D01*
X956310Y528320D01*
X963930Y734830D02*
Y735330D01*
X947430Y718330D02*
X963930Y734830D01*
X957580Y450850D02*
Y459232D01*
X953262Y463550D02*
X957580Y459232D01*
X938784Y463550D02*
X953262D01*
X935990Y466344D02*
X938784Y463550D01*
X935990Y466344D02*
Y516905D01*
X937133Y518048D01*
X935736Y450850D02*
X945580D01*
X928116Y458470D02*
X935736Y450850D01*
X960120Y476250D02*
Y500126D01*
X978154Y518160D01*
Y598932D01*
X988822Y609600D01*
X1078572D01*
X1086700Y617728D01*
Y877570D01*
X957580Y425020D02*
X962270D01*
X982472Y507492D02*
X995680Y520700D01*
X982472Y405814D02*
Y507492D01*
X979678Y403020D02*
X982472Y405814D01*
X962270Y403020D02*
X979678D01*
X1035050Y341630D02*
Y483870D01*
X1071880Y520700D01*
X1059434Y457454D02*
X1071880Y469900D01*
X1059434Y415798D02*
Y457454D01*
Y415798D02*
X1060450Y414782D01*
Y341630D02*
Y414782D01*
X945270Y388168D02*
Y403020D01*
Y388168D02*
X946850Y386588D01*
Y372110D02*
Y386588D01*
X973056Y749300D02*
X995680D01*
X970026Y752330D02*
X973056Y749300D01*
X947430Y752330D02*
X970026D01*
X952152Y604614D02*
Y626110D01*
Y604614D02*
X956310Y600456D01*
Y579120D02*
Y600456D01*
X945580Y437952D02*
Y450850D01*
X945270Y437642D02*
X945580Y437952D01*
X945270Y425020D02*
Y437642D01*
X962270Y389246D02*
Y403020D01*
X958850Y385826D02*
X962270Y389246D01*
X958850Y372110D02*
Y385826D01*
D38*
X1056700Y829570D02*
D03*
D39*
X1028700Y877570D02*
D03*
X1086700D02*
D03*
D40*
X956310Y579120D02*
D03*
Y553720D02*
D03*
D41*
Y528320D02*
D03*
D42*
X1071880Y419100D02*
D03*
Y444500D02*
D03*
Y469900D02*
D03*
Y495300D02*
D03*
Y520700D02*
D03*
Y546100D02*
D03*
Y571500D02*
D03*
Y596900D02*
D03*
Y622300D02*
D03*
Y647700D02*
D03*
Y673100D02*
D03*
Y698500D02*
D03*
Y723900D02*
D03*
Y749300D02*
D03*
X995680Y419100D02*
D03*
Y444500D02*
D03*
Y469900D02*
D03*
Y495300D02*
D03*
Y520700D02*
D03*
Y546100D02*
D03*
Y571500D02*
D03*
Y596900D02*
D03*
Y622300D02*
D03*
Y647700D02*
D03*
Y673100D02*
D03*
Y698500D02*
D03*
Y723900D02*
D03*
D43*
Y749300D02*
D03*
D44*
X927354Y526542D02*
D03*
M02*
