M48
;Layer_Color=9474304
;FILE_FORMAT=4:4
METRIC,TZ
;TYPE=PLATED
T01F00S00C0.7620
T03F00S00C0.9000
T04F00S00C1.0000
%
T01
X927354Y526542
T03
X995680Y419100
X995680Y444500
X995680Y469900
X995680Y495300
X995680Y520700
X995680Y546100
X995680Y571500
X995680Y596900
X995680Y622300
X995680Y647700
X995680Y673100
X995680Y698500
X995680Y723900
X995680Y749300
X1071880Y749300
X1071880Y723900
X1071880Y698500
X1071880Y673100
X1071880Y647700
X1071880Y622300
X1071880Y596900
X1071880Y571500
X1071880Y546100
X1071880Y520700
X1071880Y495300
X1071880Y469900
X1071880Y444500
X1071880Y419100
T04
X1009650Y316230
X1035050Y316230
X1060450Y316230
X1060450Y341630
X1035050Y341630
X1009650Y341630
X956310Y528320
X956310Y553720
X956310Y579120
M30
