G04*
G04 #@! TF.GenerationSoftware,Altium Limited,Altium Designer,25.4.2 (15)*
G04*
G04 Layer_Color=8421504*
%FSLAX44Y44*%
%MOMM*%
G71*
G04*
G04 #@! TF.SameCoordinates,A96A63F0-213E-4ED1-A765-ED1990C429BC*
G04*
G04*
G04 #@! TF.FilePolarity,Positive*
G04*
G01*
G75*
%ADD16R,0.7500X0.9000*%
%ADD17R,1.2000X1.4000*%
%ADD18R,0.5000X0.4000*%
%ADD19R,1.4500X0.9500*%
%ADD20R,1.2000X1.2000*%
%ADD21R,0.5000X0.4500*%
%ADD22R,0.9578X1.2621*%
%ADD23R,1.1000X0.8000*%
%ADD24R,1.7000X0.8000*%
D16*
X946850Y372110D02*
D03*
X958850D02*
D03*
X957580Y450850D02*
D03*
X945580D02*
D03*
D17*
X945270Y403020D02*
D03*
Y425020D02*
D03*
X962270D02*
D03*
Y403020D02*
D03*
D18*
X1098550Y541020D02*
D03*
Y549020D02*
D03*
X1117600Y548830D02*
D03*
Y540830D02*
D03*
X1116330Y573150D02*
D03*
Y565150D02*
D03*
D19*
X1109980Y492350D02*
D03*
Y472850D02*
D03*
D20*
X1111250Y617900D02*
D03*
Y596900D02*
D03*
D21*
X950080Y681990D02*
D03*
X957580D02*
D03*
D22*
X945576Y476250D02*
D03*
X960120D02*
D03*
X937608Y626110D02*
D03*
X952152D02*
D03*
D23*
X963930Y735330D02*
D03*
D24*
X947430Y752330D02*
D03*
Y718330D02*
D03*
M02*
