G04*
G04 #@! TF.GenerationSoftware,Altium Limited,Altium Designer,25.4.2 (15)*
G04*
G04 Layer_Color=128*
%FSLAX44Y44*%
%MOMM*%
G71*
G04*
G04 #@! TF.SameCoordinates,A96A63F0-213E-4ED1-A765-ED1990C429BC*
G04*
G04*
G04 #@! TF.FilePolarity,Positive*
G04*
G01*
G75*
%ADD45C,0.1270*%
D45*
X1055450Y316230D02*
X1065450D01*
X1060450Y311230D02*
Y321230D01*
X1030050Y316230D02*
X1040050D01*
X1035050Y311230D02*
Y321230D01*
X1004650Y316230D02*
X1014650D01*
X1009650Y311230D02*
Y321230D01*
X1055450Y341630D02*
X1065450D01*
X1060450Y336630D02*
Y346630D01*
X1030050Y341630D02*
X1040050D01*
X1035050Y336630D02*
Y346630D01*
X1004650Y341630D02*
X1014650D01*
X1009650Y336630D02*
Y346630D01*
X1052700Y829570D02*
X1060700D01*
X1056700Y825570D02*
Y833570D01*
X1024700Y877570D02*
X1032700D01*
X1028700Y873570D02*
Y881570D01*
X1082700Y877570D02*
X1090700D01*
X1086700Y873570D02*
Y881570D01*
X951310Y579120D02*
X961310D01*
X956310Y574120D02*
Y584120D01*
X951310Y553720D02*
X961310D01*
X956310Y548720D02*
Y558720D01*
X951310Y528320D02*
X961310D01*
X956310Y523320D02*
Y533320D01*
X1067380Y419100D02*
X1076380D01*
X1071880Y414600D02*
Y423600D01*
X1067380Y444500D02*
X1076380D01*
X1071880Y440000D02*
Y449000D01*
X1067380Y469900D02*
X1076380D01*
X1071880Y465400D02*
Y474400D01*
X1067380Y495300D02*
X1076380D01*
X1071880Y490800D02*
Y499800D01*
X1067380Y520700D02*
X1076380D01*
X1071880Y516200D02*
Y525200D01*
X1067380Y546100D02*
X1076380D01*
X1071880Y541600D02*
Y550600D01*
X1067380Y571500D02*
X1076380D01*
X1071880Y567000D02*
Y576000D01*
X1067380Y596900D02*
X1076380D01*
X1071880Y592400D02*
Y601400D01*
X1067380Y622300D02*
X1076380D01*
X1071880Y617800D02*
Y626800D01*
X1067380Y647700D02*
X1076380D01*
X1071880Y643200D02*
Y652200D01*
X1067380Y673100D02*
X1076380D01*
X1071880Y668600D02*
Y677600D01*
X1067380Y698500D02*
X1076380D01*
X1071880Y694000D02*
Y703000D01*
X1067380Y723900D02*
X1076380D01*
X1071880Y719400D02*
Y728400D01*
X1067380Y749300D02*
X1076380D01*
X1071880Y744800D02*
Y753800D01*
X991180Y419100D02*
X1000180D01*
X995680Y414600D02*
Y423600D01*
X991180Y444500D02*
X1000180D01*
X995680Y440000D02*
Y449000D01*
X991180Y469900D02*
X1000180D01*
X995680Y465400D02*
Y474400D01*
X991180Y495300D02*
X1000180D01*
X995680Y490800D02*
Y499800D01*
X991180Y520700D02*
X1000180D01*
X995680Y516200D02*
Y525200D01*
X991180Y546100D02*
X1000180D01*
X995680Y541600D02*
Y550600D01*
X991180Y571500D02*
X1000180D01*
X995680Y567000D02*
Y576000D01*
X991180Y596900D02*
X1000180D01*
X995680Y592400D02*
Y601400D01*
X991180Y622300D02*
X1000180D01*
X995680Y617800D02*
Y626800D01*
X991180Y647700D02*
X1000180D01*
X995680Y643200D02*
Y652200D01*
X991180Y673100D02*
X1000180D01*
X995680Y668600D02*
Y677600D01*
X991180Y698500D02*
X1000180D01*
X995680Y694000D02*
Y703000D01*
X991180Y723900D02*
X1000180D01*
X995680Y719400D02*
Y728400D01*
X991180Y749300D02*
X1000180D01*
X995680Y744800D02*
Y753800D01*
X923544Y526542D02*
X931164D01*
X927354Y522732D02*
Y530352D01*
M02*
