G04*
G04 #@! TF.GenerationSoftware,Altium Limited,Altium Designer,25.4.2 (15)*
G04*
G04 Layer_Color=65535*
%FSLAX44Y44*%
%MOMM*%
G71*
G04*
G04 #@! TF.SameCoordinates,A96A63F0-213E-4ED1-A765-ED1990C429BC*
G04*
G04*
G04 #@! TF.FilePolarity,Positive*
G04*
G01*
G75*
%ADD10C,0.2500*%
%ADD11C,0.6000*%
%ADD12C,0.2000*%
%ADD13C,0.4000*%
%ADD14C,0.3810*%
%ADD15C,0.2540*%
D10*
X980750Y341630D02*
G03*
X980750Y341630I-1250J0D01*
G01*
X963520Y390520D02*
G03*
X963520Y390520I-1250J0D01*
G01*
X957560Y496220D02*
G03*
X957560Y496220I-1250J0D01*
G01*
X996930Y762300D02*
G03*
X996930Y762300I-1250J0D01*
G01*
D11*
X1020280Y751200D02*
G03*
X1020280Y751200I-3000J0D01*
G01*
D12*
X1027430Y761200D02*
G03*
X1040130Y761200I6350J0D01*
G01*
X944047Y380640D02*
X961546D01*
X944100Y363610D02*
X961600D01*
X984250Y278680D02*
Y379180D01*
Y278680D02*
X1085850D01*
Y379180D01*
X984250D02*
X1085850D01*
X942884Y442320D02*
X960383D01*
X942830Y459350D02*
X960330D01*
X972020Y398020D02*
Y430020D01*
X935520Y398020D02*
Y430020D01*
X950700Y922570D02*
X1095700D01*
X950700Y832570D02*
Y922570D01*
X1095700Y900570D02*
Y922570D01*
Y832570D02*
Y854570D01*
X950700Y832570D02*
X1033700D01*
X1079700D02*
X1095700D01*
X1092300Y539770D02*
Y550270D01*
X1104800Y539770D02*
Y550270D01*
X1123850Y539580D02*
Y550080D01*
X1111350Y539580D02*
Y550080D01*
X1122580Y563900D02*
Y574400D01*
X1110080Y563900D02*
Y574400D01*
X1116980Y481350D02*
Y483850D01*
X1102980Y481350D02*
Y483850D01*
X940788Y465500D02*
X964909D01*
X940788Y487000D02*
X964909D01*
X934710Y502720D02*
Y604720D01*
X929710Y502720D02*
Y604720D01*
X976710Y502720D02*
Y604720D01*
X929710D02*
X976710D01*
X929710Y502720D02*
X976710D01*
X932820Y615360D02*
X956940D01*
X932820Y636860D02*
X956940D01*
X1007280Y407200D02*
X1060280D01*
X1040130Y761200D02*
X1060280D01*
X1007280D02*
X1027430D01*
X1060280Y407200D02*
Y761200D01*
X1007280Y407200D02*
Y761200D01*
X933930Y719330D02*
X935180D01*
X959680D02*
X960930D01*
Y743080D02*
Y751330D01*
Y719330D02*
Y727580D01*
X933930Y751330D02*
X935180D01*
X959680D02*
X960930D01*
X933930Y719330D02*
Y751330D01*
D13*
X1105000Y585900D02*
X1117500D01*
D14*
X1106176Y655320D02*
X1121411D01*
Y665477D01*
X1106176Y680712D02*
Y670555D01*
X1121411D01*
Y680712D01*
X1113793Y670555D02*
Y675633D01*
X1106176Y685790D02*
X1121411D01*
Y693408D01*
X1118872Y695947D01*
X1108715D01*
X1106176Y693408D01*
Y685790D01*
X1123950Y701025D02*
Y711182D01*
X1106176Y716260D02*
X1121411D01*
Y723878D01*
X1118872Y726417D01*
X1116332D01*
X1113793Y723878D01*
Y716260D01*
Y723878D01*
X1111254Y726417D01*
X1108715D01*
X1106176Y723878D01*
Y716260D01*
Y731495D02*
X1121411D01*
Y741652D01*
X1106176Y746730D02*
Y751809D01*
Y749270D01*
X1121411D01*
Y746730D01*
Y751809D01*
Y759426D02*
X1106176D01*
X1121411Y769583D01*
X1106176D01*
Y774661D02*
X1121411D01*
X1116332D01*
X1106176Y784818D01*
X1113793Y777201D01*
X1121411Y784818D01*
X1106176Y800053D02*
Y789896D01*
X1121411D01*
Y800053D01*
X1113793Y789896D02*
Y794975D01*
X1121411Y805132D02*
X1106176D01*
Y812749D01*
X1108715Y815288D01*
X1113793D01*
X1116332Y812749D01*
Y805132D01*
Y810210D02*
X1121411Y815288D01*
Y835602D02*
X1106176D01*
Y843219D01*
X1108715Y845758D01*
X1113793D01*
X1116332Y843219D01*
Y835602D01*
X1108715Y860993D02*
X1106176Y858454D01*
Y853376D01*
X1108715Y850837D01*
X1118872D01*
X1121411Y853376D01*
Y858454D01*
X1118872Y860993D01*
X1106176Y866072D02*
X1121411D01*
Y873689D01*
X1118872Y876228D01*
X1116332D01*
X1113793Y873689D01*
Y866072D01*
Y873689D01*
X1111254Y876228D01*
X1108715D01*
X1106176Y873689D01*
Y866072D01*
D15*
X932180Y363219D02*
X930911Y364489D01*
X928372D01*
X927102Y363219D01*
Y358141D01*
X928372Y356871D01*
X930911D01*
X932180Y358141D01*
X939798Y364489D02*
X937259Y363219D01*
X934720Y360680D01*
Y358141D01*
X935989Y356871D01*
X938528D01*
X939798Y358141D01*
Y359410D01*
X938528Y360680D01*
X934720D01*
X972820Y377189D02*
X970281D01*
X971551D01*
Y370841D01*
X970281Y369571D01*
X969012D01*
X967742Y370841D01*
X980438Y369571D02*
X975360D01*
X980438Y374650D01*
Y375919D01*
X979168Y377189D01*
X976629D01*
X975360Y375919D01*
X974440Y455929D02*
X973171Y457199D01*
X970632D01*
X969362Y455929D01*
Y450851D01*
X970632Y449581D01*
X973171D01*
X974440Y450851D01*
X976980Y457199D02*
X982058D01*
Y455929D01*
X976980Y450851D01*
Y449581D01*
X924562Y440689D02*
Y439419D01*
X927101Y436880D01*
X929640Y439419D01*
Y440689D01*
X927101Y436880D02*
Y433071D01*
X932179D02*
X934718D01*
X933449D01*
Y440689D01*
X932179Y439419D01*
X1045210Y810257D02*
X1040132D01*
X1042671D01*
Y797562D01*
X1040132Y795023D01*
X1037592D01*
X1035053Y797562D01*
X1050288Y795023D02*
X1055367D01*
X1052828D01*
Y810257D01*
X1050288Y807718D01*
X1098550Y560069D02*
X1097281Y561339D01*
X1094742D01*
X1093472Y560069D01*
Y554991D01*
X1094742Y553721D01*
X1097281D01*
X1098550Y554991D01*
X1104898Y553721D02*
Y561339D01*
X1101090Y557530D01*
X1106168D01*
X1092200Y528319D02*
X1090931Y529589D01*
X1088392D01*
X1087122Y528319D01*
Y523241D01*
X1088392Y521971D01*
X1090931D01*
X1092200Y523241D01*
X1094740Y528319D02*
X1096009Y529589D01*
X1098548D01*
X1099818Y528319D01*
Y527050D01*
X1098548Y525780D01*
X1097279D01*
X1098548D01*
X1099818Y524510D01*
Y523241D01*
X1098548Y521971D01*
X1096009D01*
X1094740Y523241D01*
X1093470Y585469D02*
X1092201Y586739D01*
X1089662D01*
X1088392Y585469D01*
Y580391D01*
X1089662Y579121D01*
X1092201D01*
X1093470Y580391D01*
X1101088Y586739D02*
X1096010D01*
Y582930D01*
X1098549Y584200D01*
X1099818D01*
X1101088Y582930D01*
Y580391D01*
X1099818Y579121D01*
X1097279D01*
X1096010Y580391D01*
X1092204Y446632D02*
Y461867D01*
X1099822D01*
X1102361Y459328D01*
Y454250D01*
X1099822Y451711D01*
X1092204D01*
X1097282D02*
X1102361Y446632D01*
X1117596D02*
X1107439D01*
X1117596Y456789D01*
Y459328D01*
X1115057Y461867D01*
X1109978D01*
X1107439Y459328D01*
X1102358Y627799D02*
X1092202D01*
Y622721D01*
X1093894Y621028D01*
X1100666D01*
X1102358Y622721D01*
Y627799D01*
X1100666Y610872D02*
X1102358Y612564D01*
Y615950D01*
X1100666Y617643D01*
X1098973D01*
X1097280Y615950D01*
Y612564D01*
X1095587Y610872D01*
X1093894D01*
X1092202Y612564D01*
Y615950D01*
X1093894Y617643D01*
X1092202Y607486D02*
Y604100D01*
Y605793D01*
X1102358D01*
X1100666Y607486D01*
X946213Y659133D02*
Y674368D01*
X953831D01*
X956370Y671828D01*
Y666750D01*
X953831Y664211D01*
X946213D01*
X951292D02*
X956370Y659133D01*
X961448D02*
X966527D01*
X963988D01*
Y674368D01*
X961448Y671828D01*
X976978Y474979D02*
X975709Y476249D01*
X973169D01*
X971900Y474979D01*
Y469901D01*
X973169Y468631D01*
X975709D01*
X976978Y469901D01*
X979517Y468631D02*
X982057D01*
X980787D01*
Y476249D01*
X979517Y474979D01*
X963933Y629917D02*
Y617222D01*
X966472Y614683D01*
X971551D01*
X974090Y617222D01*
Y629917D01*
X979168Y614683D02*
X984247D01*
X981708D01*
Y629917D01*
X979168Y627378D01*
X943263Y654048D02*
X940723Y656588D01*
X935645D01*
X933106Y654048D01*
Y643892D01*
X935645Y641352D01*
X940723D01*
X943263Y643892D01*
X958498Y641352D02*
X948341D01*
X958498Y651509D01*
Y654048D01*
X955959Y656588D01*
X950880D01*
X948341Y654048D01*
X989584Y787649D02*
Y774953D01*
X992123Y772414D01*
X997202D01*
X999741Y774953D01*
Y787649D01*
X1014976Y772414D02*
X1004819D01*
X1014976Y782571D01*
Y785110D01*
X1012437Y787649D01*
X1007358D01*
X1004819Y785110D01*
X944623Y778760D02*
X942084Y781299D01*
X937005D01*
X934466Y778760D01*
Y776221D01*
X937005Y773681D01*
X942084D01*
X944623Y771142D01*
Y768603D01*
X942084Y766064D01*
X937005D01*
X934466Y768603D01*
X949701Y781299D02*
Y766064D01*
X954779Y771142D01*
X959858Y766064D01*
Y781299D01*
X964936Y766064D02*
X970014D01*
X967475D01*
Y781299D01*
X964936Y778760D01*
M02*
