G04*
G04 #@! TF.GenerationSoftware,Altium Limited,Altium Designer,25.4.2 (15)*
G04*
G04 Layer_Physical_Order=2*
G04 Layer_Color=13391121*
%FSLAX44Y44*%
%MOMM*%
G71*
G04*
G04 #@! TF.SameCoordinates,A96A63F0-213E-4ED1-A765-ED1990C429BC*
G04*
G04*
G04 #@! TF.FilePolarity,Positive*
G04*
G01*
G75*
%ADD27C,1.5500*%
%ADD28R,1.5500X1.5500*%
%ADD37C,0.6350*%
G04:AMPARAMS|DCode=38|XSize=4mm|YSize=1.8mm|CornerRadius=0.45mm|HoleSize=0mm|Usage=FLASHONLY|Rotation=180.000|XOffset=0mm|YOffset=0mm|HoleType=Round|Shape=RoundedRectangle|*
%AMROUNDEDRECTD38*
21,1,4.0000,0.9000,0,0,180.0*
21,1,3.1000,1.8000,0,0,180.0*
1,1,0.9000,-1.5500,0.4500*
1,1,0.9000,1.5500,0.4500*
1,1,0.9000,1.5500,-0.4500*
1,1,0.9000,-1.5500,-0.4500*
%
%ADD38ROUNDEDRECTD38*%
G04:AMPARAMS|DCode=39|XSize=4mm|YSize=1.8mm|CornerRadius=0.45mm|HoleSize=0mm|Usage=FLASHONLY|Rotation=90.000|XOffset=0mm|YOffset=0mm|HoleType=Round|Shape=RoundedRectangle|*
%AMROUNDEDRECTD39*
21,1,4.0000,0.9000,0,0,90.0*
21,1,3.1000,1.8000,0,0,90.0*
1,1,0.9000,0.4500,1.5500*
1,1,0.9000,0.4500,-1.5500*
1,1,0.9000,-0.4500,-1.5500*
1,1,0.9000,-0.4500,1.5500*
%
%ADD39ROUNDEDRECTD39*%
%ADD40C,1.6000*%
%ADD41R,1.6000X1.6000*%
%ADD42C,1.5000*%
%ADD43R,1.5000X1.5000*%
%ADD44C,1.0160*%
G36*
X1130300Y269240D02*
X918210D01*
Y929640D01*
X1130300D01*
Y269240D01*
D02*
G37*
%LPC*%
G36*
X1033200Y900171D02*
X1029970D01*
Y878840D01*
X1040301D01*
Y893070D01*
X1040059Y894908D01*
X1039349Y896620D01*
X1038221Y898091D01*
X1036750Y899219D01*
X1035038Y899929D01*
X1033200Y900171D01*
D02*
G37*
G36*
X1027430D02*
X1024200D01*
X1022362Y899929D01*
X1020650Y899219D01*
X1019179Y898091D01*
X1018051Y896620D01*
X1017341Y894908D01*
X1017099Y893070D01*
Y878840D01*
X1027430D01*
Y900171D01*
D02*
G37*
G36*
X1091200Y899212D02*
X1082200D01*
X1079849Y898745D01*
X1077857Y897413D01*
X1076525Y895420D01*
X1076058Y893070D01*
Y862070D01*
X1076525Y859720D01*
X1077857Y857727D01*
X1079849Y856395D01*
X1082200Y855928D01*
X1091200D01*
X1093550Y856395D01*
X1095543Y857727D01*
X1096874Y859720D01*
X1097342Y862070D01*
Y893070D01*
X1096874Y895420D01*
X1095543Y897413D01*
X1093550Y898745D01*
X1091200Y899212D01*
D02*
G37*
G36*
X1040301Y876300D02*
X1029970D01*
Y854969D01*
X1033200D01*
X1035038Y855211D01*
X1036750Y855921D01*
X1038221Y857049D01*
X1039349Y858520D01*
X1040059Y860232D01*
X1040301Y862070D01*
Y876300D01*
D02*
G37*
G36*
X1027430D02*
X1017099D01*
Y862070D01*
X1017341Y860232D01*
X1018051Y858520D01*
X1019179Y857049D01*
X1020650Y855921D01*
X1022362Y855211D01*
X1024200Y854969D01*
X1027430D01*
Y876300D01*
D02*
G37*
G36*
X1072200Y841171D02*
X1057970D01*
Y830840D01*
X1079301D01*
Y834070D01*
X1079059Y835908D01*
X1078349Y837620D01*
X1077221Y839091D01*
X1075750Y840219D01*
X1074038Y840929D01*
X1072200Y841171D01*
D02*
G37*
G36*
X1055430D02*
X1041200D01*
X1039362Y840929D01*
X1037650Y840219D01*
X1036179Y839091D01*
X1035051Y837620D01*
X1034341Y835908D01*
X1034099Y834070D01*
Y830840D01*
X1055430D01*
Y841171D01*
D02*
G37*
G36*
X1079301Y828300D02*
X1057970D01*
Y817969D01*
X1072200D01*
X1074038Y818211D01*
X1075750Y818921D01*
X1077221Y820049D01*
X1078349Y821520D01*
X1079059Y823232D01*
X1079301Y825070D01*
Y828300D01*
D02*
G37*
G36*
X1055430D02*
X1034099D01*
Y825070D01*
X1034341Y823232D01*
X1035051Y821520D01*
X1036179Y820049D01*
X1037650Y818921D01*
X1039362Y818211D01*
X1041200Y817969D01*
X1055430D01*
Y828300D01*
D02*
G37*
G36*
X1073068Y758324D02*
X1070692D01*
X1068397Y757709D01*
X1066339Y756521D01*
X1064659Y754841D01*
X1063471Y752783D01*
X1062856Y750488D01*
Y748112D01*
X1063471Y745817D01*
X1064659Y743759D01*
X1066339Y742079D01*
X1068397Y740891D01*
X1070692Y740276D01*
X1073068D01*
X1075363Y740891D01*
X1077421Y742079D01*
X1079101Y743759D01*
X1080289Y745817D01*
X1080904Y748112D01*
Y750488D01*
X1080289Y752783D01*
X1079101Y754841D01*
X1077421Y756521D01*
X1075363Y757709D01*
X1073068Y758324D01*
D02*
G37*
G36*
Y732924D02*
X1070692D01*
X1068397Y732309D01*
X1066339Y731121D01*
X1064659Y729441D01*
X1063471Y727383D01*
X1062856Y725088D01*
Y722712D01*
X1063471Y720417D01*
X1064659Y718359D01*
X1066339Y716679D01*
X1068397Y715491D01*
X1070692Y714876D01*
X1073068D01*
X1075363Y715491D01*
X1077421Y716679D01*
X1079101Y718359D01*
X1080289Y720417D01*
X1080904Y722712D01*
Y725088D01*
X1080289Y727383D01*
X1079101Y729441D01*
X1077421Y731121D01*
X1075363Y732309D01*
X1073068Y732924D01*
D02*
G37*
G36*
X996868D02*
X994492D01*
X992197Y732309D01*
X990139Y731121D01*
X988459Y729441D01*
X987271Y727383D01*
X986656Y725088D01*
Y722712D01*
X987271Y720417D01*
X988459Y718359D01*
X990139Y716679D01*
X992197Y715491D01*
X994492Y714876D01*
X996868D01*
X999163Y715491D01*
X1001221Y716679D01*
X1002901Y718359D01*
X1004089Y720417D01*
X1004704Y722712D01*
Y725088D01*
X1004089Y727383D01*
X1002901Y729441D01*
X1001221Y731121D01*
X999163Y732309D01*
X996868Y732924D01*
D02*
G37*
G36*
X1073068Y707524D02*
X1070692D01*
X1068397Y706909D01*
X1066339Y705721D01*
X1064659Y704041D01*
X1063471Y701983D01*
X1062856Y699688D01*
Y697312D01*
X1063471Y695017D01*
X1064659Y692959D01*
X1066339Y691279D01*
X1068397Y690091D01*
X1070692Y689476D01*
X1073068D01*
X1075363Y690091D01*
X1077421Y691279D01*
X1079101Y692959D01*
X1080289Y695017D01*
X1080904Y697312D01*
Y699688D01*
X1080289Y701983D01*
X1079101Y704041D01*
X1077421Y705721D01*
X1075363Y706909D01*
X1073068Y707524D01*
D02*
G37*
G36*
X996868D02*
X994492D01*
X992197Y706909D01*
X990139Y705721D01*
X988459Y704041D01*
X987271Y701983D01*
X986656Y699688D01*
Y697312D01*
X987271Y695017D01*
X988459Y692959D01*
X990139Y691279D01*
X992197Y690091D01*
X994492Y689476D01*
X996868D01*
X999163Y690091D01*
X1001221Y691279D01*
X1002901Y692959D01*
X1004089Y695017D01*
X1004704Y697312D01*
Y699688D01*
X1004089Y701983D01*
X1002901Y704041D01*
X1001221Y705721D01*
X999163Y706909D01*
X996868Y707524D01*
D02*
G37*
G36*
X1073068Y682124D02*
X1070692D01*
X1068397Y681509D01*
X1066339Y680321D01*
X1064659Y678641D01*
X1063471Y676583D01*
X1062856Y674288D01*
Y671912D01*
X1063471Y669617D01*
X1064659Y667559D01*
X1066339Y665879D01*
X1068397Y664691D01*
X1070692Y664076D01*
X1073068D01*
X1075363Y664691D01*
X1077421Y665879D01*
X1079101Y667559D01*
X1080289Y669617D01*
X1080904Y671912D01*
Y674288D01*
X1080289Y676583D01*
X1079101Y678641D01*
X1077421Y680321D01*
X1075363Y681509D01*
X1073068Y682124D01*
D02*
G37*
G36*
X996868D02*
X994492D01*
X992197Y681509D01*
X990139Y680321D01*
X988459Y678641D01*
X987271Y676583D01*
X986656Y674288D01*
Y671912D01*
X987271Y669617D01*
X988459Y667559D01*
X990139Y665879D01*
X992197Y664691D01*
X994492Y664076D01*
X996868D01*
X999163Y664691D01*
X1001221Y665879D01*
X1002901Y667559D01*
X1004089Y669617D01*
X1004704Y671912D01*
Y674288D01*
X1004089Y676583D01*
X1002901Y678641D01*
X1001221Y680321D01*
X999163Y681509D01*
X996868Y682124D01*
D02*
G37*
G36*
X1073068Y656724D02*
X1070692D01*
X1068397Y656109D01*
X1066339Y654921D01*
X1064659Y653241D01*
X1063471Y651183D01*
X1062856Y648888D01*
Y646512D01*
X1063471Y644217D01*
X1064659Y642159D01*
X1066339Y640479D01*
X1068397Y639291D01*
X1070692Y638676D01*
X1073068D01*
X1075363Y639291D01*
X1077421Y640479D01*
X1079101Y642159D01*
X1080289Y644217D01*
X1080904Y646512D01*
Y648888D01*
X1080289Y651183D01*
X1079101Y653241D01*
X1077421Y654921D01*
X1075363Y656109D01*
X1073068Y656724D01*
D02*
G37*
G36*
X996868D02*
X994492D01*
X992197Y656109D01*
X990139Y654921D01*
X988459Y653241D01*
X987271Y651183D01*
X986656Y648888D01*
Y646512D01*
X987271Y644217D01*
X988459Y642159D01*
X990139Y640479D01*
X992197Y639291D01*
X994492Y638676D01*
X996868D01*
X999163Y639291D01*
X1001221Y640479D01*
X1002901Y642159D01*
X1004089Y644217D01*
X1004704Y646512D01*
Y648888D01*
X1004089Y651183D01*
X1002901Y653241D01*
X1001221Y654921D01*
X999163Y656109D01*
X996868Y656724D01*
D02*
G37*
G36*
Y631324D02*
X994492D01*
X992197Y630709D01*
X990139Y629521D01*
X988459Y627841D01*
X987271Y625783D01*
X986656Y623488D01*
Y621112D01*
X987271Y618817D01*
X988459Y616759D01*
X990139Y615079D01*
X992197Y613891D01*
X994492Y613276D01*
X996868D01*
X999163Y613891D01*
X1001221Y615079D01*
X1002901Y616759D01*
X1004089Y618817D01*
X1004704Y621112D01*
Y623488D01*
X1004089Y625783D01*
X1002901Y627841D01*
X1001221Y629521D01*
X999163Y630709D01*
X996868Y631324D01*
D02*
G37*
G36*
X1004704Y758324D02*
X986656D01*
Y740276D01*
X997928D01*
X1038133Y700071D01*
Y623570D01*
X1038498Y621736D01*
X1039536Y620182D01*
X1053252Y606466D01*
X1054807Y605428D01*
X1056640Y605063D01*
X1062252D01*
X1062891Y604262D01*
X1063533Y602523D01*
X1062524Y600775D01*
X1061840Y598222D01*
Y598170D01*
X1071880D01*
Y596900D01*
X1073150D01*
Y586860D01*
X1073202D01*
X1075755Y587544D01*
X1076995Y588260D01*
X1079535Y586953D01*
Y580199D01*
X1078493Y579470D01*
X1076995Y578967D01*
X1075363Y579909D01*
X1073068Y580524D01*
X1070692D01*
X1068397Y579909D01*
X1066339Y578721D01*
X1064659Y577041D01*
X1063471Y574983D01*
X1062856Y572688D01*
Y570312D01*
X1063471Y568017D01*
X1064659Y565959D01*
X1066339Y564279D01*
X1068397Y563091D01*
X1070692Y562476D01*
X1073068D01*
X1075363Y563091D01*
X1076995Y564033D01*
X1078493Y563530D01*
X1079535Y562801D01*
Y554799D01*
X1078493Y554070D01*
X1076995Y553567D01*
X1075363Y554509D01*
X1073068Y555124D01*
X1070692D01*
X1069856Y554900D01*
X1062568Y562188D01*
X1061013Y563226D01*
X1059180Y563591D01*
X1007695D01*
X1006319Y566131D01*
X1006695Y566709D01*
X1046480D01*
X1048314Y567074D01*
X1049868Y568112D01*
X1069026Y587271D01*
X1070558Y586860D01*
X1070610D01*
Y595630D01*
X1061840D01*
Y595578D01*
X1062251Y594046D01*
X1044495Y576291D01*
X1004507D01*
X1003714Y577665D01*
X1001845Y579534D01*
X999555Y580856D01*
X997002Y581540D01*
X996950D01*
Y571500D01*
X994410D01*
Y581540D01*
X994358D01*
X991805Y580856D01*
X989515Y579534D01*
X987646Y577665D01*
X986853Y576291D01*
X974090D01*
X972257Y575926D01*
X970702Y574888D01*
X959572Y563758D01*
X957698Y564260D01*
X957580D01*
Y553720D01*
X955040D01*
Y564260D01*
X954922D01*
X953009Y563747D01*
X950931Y564675D01*
X950207Y565300D01*
X950084Y566119D01*
X953877Y569912D01*
X955056Y569596D01*
X957564D01*
X959986Y570245D01*
X962158Y571499D01*
X963931Y573272D01*
X965185Y575444D01*
X965834Y577866D01*
Y580374D01*
X965518Y581553D01*
X976075Y592109D01*
X988026D01*
X988459Y591359D01*
X990139Y589679D01*
X992197Y588491D01*
X994492Y587876D01*
X996868D01*
X999163Y588491D01*
X1001221Y589679D01*
X1002901Y591359D01*
X1004089Y593417D01*
X1004704Y595712D01*
Y598088D01*
X1004089Y600383D01*
X1002901Y602441D01*
X1001221Y604121D01*
X999163Y605309D01*
X996868Y605924D01*
X994492D01*
X992197Y605309D01*
X990139Y604121D01*
X988459Y602441D01*
X988026Y601691D01*
X974090D01*
X972257Y601326D01*
X970702Y600288D01*
X958743Y588328D01*
X957564Y588644D01*
X955056D01*
X952634Y587995D01*
X950462Y586741D01*
X948689Y584968D01*
X947435Y582796D01*
X946786Y580374D01*
Y577866D01*
X947102Y576687D01*
X940222Y569808D01*
X939184Y568254D01*
X938819Y566420D01*
Y548386D01*
X939184Y546553D01*
X940222Y544998D01*
X945448Y539772D01*
X946786Y537844D01*
X946786D01*
X946786Y537844D01*
Y518796D01*
X946786D01*
X946782Y518752D01*
X944146Y517796D01*
X943949Y517992D01*
X942395Y519031D01*
X941453Y519218D01*
X933958Y526714D01*
Y527411D01*
X933508Y529091D01*
X932638Y530597D01*
X931409Y531827D01*
X929903Y532696D01*
X928223Y533146D01*
X926485D01*
X924805Y532696D01*
X923299Y531827D01*
X922069Y530597D01*
X921200Y529091D01*
X920750Y527411D01*
Y525673D01*
X921200Y523993D01*
X922069Y522487D01*
X923299Y521258D01*
X924805Y520388D01*
X926485Y519938D01*
X927182D01*
X935904Y511217D01*
X937458Y510178D01*
X938399Y509991D01*
X940222Y508168D01*
X941777Y507130D01*
X943610Y506765D01*
X968756D01*
X970590Y507130D01*
X972144Y508168D01*
X984116Y520140D01*
X985674Y519755D01*
X986746Y519178D01*
X987271Y517217D01*
X988459Y515159D01*
X990139Y513479D01*
X992197Y512291D01*
X994492Y511676D01*
X996868D01*
X999163Y512291D01*
X1001221Y513479D01*
X1002901Y515159D01*
X1004089Y517217D01*
X1004704Y519512D01*
Y521888D01*
X1004089Y524183D01*
X1002901Y526241D01*
X1001221Y527921D01*
X999163Y529109D01*
X997202Y529634D01*
X996625Y530706D01*
X996240Y532264D01*
X999068Y535092D01*
X1000106Y536647D01*
X1000463Y538442D01*
X1001221Y538879D01*
X1002901Y540559D01*
X1004089Y542617D01*
X1004704Y544912D01*
Y547288D01*
X1004089Y549583D01*
X1003000Y551469D01*
X1003196Y552211D01*
X1004125Y554009D01*
X1057196D01*
X1063080Y548124D01*
X1062856Y547288D01*
Y544912D01*
X1063471Y542617D01*
X1064659Y540559D01*
X1066339Y538879D01*
X1068397Y537691D01*
X1070692Y537076D01*
X1073068D01*
X1075363Y537691D01*
X1076995Y538633D01*
X1078493Y538130D01*
X1079535Y537401D01*
Y529399D01*
X1078493Y528670D01*
X1076995Y528167D01*
X1075363Y529109D01*
X1073068Y529724D01*
X1070692D01*
X1068397Y529109D01*
X1066339Y527921D01*
X1064659Y526241D01*
X1063471Y524183D01*
X1062856Y521888D01*
Y519512D01*
X1063471Y517217D01*
X1064659Y515159D01*
X1066339Y513479D01*
X1068397Y512291D01*
X1070692Y511676D01*
X1073068D01*
X1075363Y512291D01*
X1076995Y513233D01*
X1078493Y512730D01*
X1079535Y512001D01*
Y503999D01*
X1078493Y503270D01*
X1076995Y502767D01*
X1075363Y503709D01*
X1073068Y504324D01*
X1070692D01*
X1068397Y503709D01*
X1066339Y502521D01*
X1064659Y500841D01*
X1063471Y498783D01*
X1062856Y496488D01*
Y494112D01*
X1063080Y493276D01*
X1006262Y436458D01*
X1005224Y434903D01*
X1004859Y433070D01*
Y426096D01*
X1004739Y426007D01*
X1002319Y425223D01*
X1001221Y426321D01*
X999163Y427509D01*
X996868Y428124D01*
X994492D01*
X992197Y427509D01*
X990139Y426321D01*
X988459Y424641D01*
X987271Y422583D01*
X986656Y420288D01*
Y417912D01*
X987271Y415617D01*
X988459Y413559D01*
X990139Y411879D01*
X992197Y410691D01*
X994492Y410076D01*
X996868D01*
X999163Y410691D01*
X1001221Y411879D01*
X1002319Y412977D01*
X1004739Y412193D01*
X1004859Y412104D01*
Y350904D01*
X1000376D01*
Y332356D01*
X1018924D01*
Y350904D01*
X1014441D01*
Y431086D01*
X1069856Y486500D01*
X1070692Y486276D01*
X1073068D01*
X1075363Y486891D01*
X1076995Y487833D01*
X1078493Y487330D01*
X1079535Y486601D01*
Y478599D01*
X1078493Y477870D01*
X1076995Y477367D01*
X1075363Y478309D01*
X1073068Y478924D01*
X1070692D01*
X1068397Y478309D01*
X1066339Y477121D01*
X1064659Y475441D01*
X1063471Y473383D01*
X1062856Y471088D01*
Y468712D01*
X1063471Y466417D01*
X1064659Y464359D01*
X1066339Y462679D01*
X1068397Y461491D01*
X1070692Y460876D01*
X1073068D01*
X1075363Y461491D01*
X1076995Y462433D01*
X1078493Y461930D01*
X1079535Y461201D01*
Y453199D01*
X1078493Y452470D01*
X1076995Y451967D01*
X1075363Y452909D01*
X1073068Y453524D01*
X1070692D01*
X1068397Y452909D01*
X1066339Y451721D01*
X1064659Y450041D01*
X1063471Y447983D01*
X1062856Y445688D01*
Y443312D01*
X1063471Y441017D01*
X1064659Y438959D01*
X1066339Y437279D01*
X1068397Y436091D01*
X1070692Y435476D01*
X1073068D01*
X1075363Y436091D01*
X1076995Y437033D01*
X1078493Y436530D01*
X1079535Y435801D01*
Y427799D01*
X1078493Y427070D01*
X1076995Y426567D01*
X1075363Y427509D01*
X1073068Y428124D01*
X1070692D01*
X1068397Y427509D01*
X1066339Y426321D01*
X1064659Y424641D01*
X1063471Y422583D01*
X1062856Y420288D01*
Y417912D01*
X1063471Y415617D01*
X1064659Y413559D01*
X1066339Y411879D01*
X1068397Y410691D01*
X1070692Y410076D01*
X1073068D01*
X1075363Y410691D01*
X1076995Y411633D01*
X1078493Y411130D01*
X1079535Y410401D01*
Y311864D01*
X1075992Y308321D01*
X1070466D01*
X1069232Y310861D01*
X1070039Y312258D01*
X1070740Y314875D01*
Y314960D01*
X1050160D01*
Y314875D01*
X1050733Y312735D01*
X1050355Y311508D01*
X1049281Y309915D01*
X1048305Y309751D01*
X1044054Y314002D01*
X1044324Y315009D01*
Y317451D01*
X1043692Y319810D01*
X1042471Y321924D01*
X1040744Y323651D01*
X1038630Y324872D01*
X1036271Y325504D01*
X1033829D01*
X1031470Y324872D01*
X1029356Y323651D01*
X1027629Y321924D01*
X1026408Y319810D01*
X1025776Y317451D01*
Y315009D01*
X1026408Y312650D01*
X1027629Y310536D01*
X1029356Y308809D01*
X1031470Y307588D01*
X1033829Y306956D01*
X1036271D01*
X1037279Y307226D01*
X1044362Y300142D01*
X1045917Y299104D01*
X1047750Y298739D01*
X1077976D01*
X1079809Y299104D01*
X1081364Y300142D01*
X1087714Y306492D01*
X1088752Y308047D01*
X1089117Y309880D01*
Y605536D01*
X1088752Y607369D01*
X1087714Y608924D01*
X1083396Y613242D01*
X1081842Y614280D01*
X1080484Y614550D01*
X1079712Y615784D01*
X1079347Y617185D01*
X1080289Y618817D01*
X1080904Y621112D01*
Y623488D01*
X1080289Y625783D01*
X1079101Y627841D01*
X1077421Y629521D01*
X1075363Y630709D01*
X1073068Y631324D01*
X1070692D01*
X1068397Y630709D01*
X1066339Y629521D01*
X1064659Y627841D01*
X1063471Y625783D01*
X1062856Y623488D01*
Y621112D01*
X1063471Y618817D01*
X1064413Y617185D01*
X1063910Y615687D01*
X1063181Y614645D01*
X1058624D01*
X1047715Y625555D01*
Y702056D01*
X1047350Y703889D01*
X1046312Y705444D01*
X1004704Y747052D01*
Y758324D01*
D02*
G37*
G36*
X996868Y504324D02*
X994492D01*
X992197Y503709D01*
X990139Y502521D01*
X988459Y500841D01*
X987271Y498783D01*
X986656Y496488D01*
Y494112D01*
X987271Y491817D01*
X988459Y489759D01*
X990139Y488079D01*
X992197Y486891D01*
X994492Y486276D01*
X996868D01*
X999163Y486891D01*
X1001221Y488079D01*
X1002901Y489759D01*
X1004089Y491817D01*
X1004704Y494112D01*
Y496488D01*
X1004089Y498783D01*
X1002901Y500841D01*
X1001221Y502521D01*
X999163Y503709D01*
X996868Y504324D01*
D02*
G37*
G36*
Y478924D02*
X994492D01*
X992197Y478309D01*
X990139Y477121D01*
X988459Y475441D01*
X987271Y473383D01*
X986656Y471088D01*
Y468712D01*
X987271Y466417D01*
X988459Y464359D01*
X990139Y462679D01*
X992197Y461491D01*
X994492Y460876D01*
X996868D01*
X999163Y461491D01*
X1001221Y462679D01*
X1002901Y464359D01*
X1004089Y466417D01*
X1004704Y468712D01*
Y471088D01*
X1004089Y473383D01*
X1002901Y475441D01*
X1001221Y477121D01*
X999163Y478309D01*
X996868Y478924D01*
D02*
G37*
G36*
Y453524D02*
X994492D01*
X992197Y452909D01*
X990139Y451721D01*
X988459Y450041D01*
X987271Y447983D01*
X986656Y445688D01*
Y443312D01*
X987271Y441017D01*
X988459Y438959D01*
X990139Y437279D01*
X992197Y436091D01*
X994492Y435476D01*
X996868D01*
X999163Y436091D01*
X1001221Y437279D01*
X1002901Y438959D01*
X1004089Y441017D01*
X1004704Y443312D01*
Y445688D01*
X1004089Y447983D01*
X1002901Y450041D01*
X1001221Y451721D01*
X999163Y452909D01*
X996868Y453524D01*
D02*
G37*
G36*
X1061671Y350904D02*
X1059229D01*
X1056870Y350272D01*
X1054756Y349051D01*
X1053029Y347324D01*
X1051808Y345210D01*
X1051176Y342851D01*
Y340409D01*
X1051808Y338050D01*
X1053029Y335936D01*
X1054756Y334209D01*
X1056870Y332988D01*
X1059229Y332356D01*
X1061671D01*
X1064030Y332988D01*
X1066144Y334209D01*
X1067871Y335936D01*
X1069092Y338050D01*
X1069724Y340409D01*
Y342851D01*
X1069092Y345210D01*
X1067871Y347324D01*
X1066144Y349051D01*
X1064030Y350272D01*
X1061671Y350904D01*
D02*
G37*
G36*
X1036271D02*
X1033829D01*
X1031470Y350272D01*
X1029356Y349051D01*
X1027629Y347324D01*
X1026408Y345210D01*
X1025776Y342851D01*
Y340409D01*
X1026408Y338050D01*
X1027629Y335936D01*
X1029356Y334209D01*
X1031470Y332988D01*
X1033829Y332356D01*
X1036271D01*
X1038630Y332988D01*
X1040744Y334209D01*
X1042471Y335936D01*
X1043692Y338050D01*
X1044324Y340409D01*
Y342851D01*
X1043692Y345210D01*
X1042471Y347324D01*
X1040744Y349051D01*
X1038630Y350272D01*
X1036271Y350904D01*
D02*
G37*
G36*
X1061805Y326520D02*
X1061720D01*
Y317500D01*
X1070740D01*
Y317585D01*
X1070039Y320202D01*
X1068684Y322548D01*
X1066768Y324464D01*
X1064422Y325819D01*
X1061805Y326520D01*
D02*
G37*
G36*
X1059180D02*
X1059095D01*
X1056478Y325819D01*
X1054132Y324464D01*
X1052216Y322548D01*
X1050861Y320202D01*
X1050160Y317585D01*
Y317500D01*
X1059180D01*
Y326520D01*
D02*
G37*
G36*
X1010871Y325504D02*
X1008429D01*
X1006070Y324872D01*
X1003956Y323651D01*
X1002229Y321924D01*
X1001008Y319810D01*
X1000376Y317451D01*
Y315009D01*
X1001008Y312650D01*
X1002229Y310536D01*
X1003956Y308809D01*
X1006070Y307588D01*
X1008429Y306956D01*
X1010871D01*
X1013230Y307588D01*
X1015344Y308809D01*
X1017071Y310536D01*
X1018292Y312650D01*
X1018924Y315009D01*
Y317451D01*
X1018292Y319810D01*
X1017071Y321924D01*
X1015344Y323651D01*
X1013230Y324872D01*
X1010871Y325504D01*
D02*
G37*
%LPD*%
G36*
X986147Y552717D02*
X987271Y549583D01*
X986656Y547288D01*
Y544912D01*
X987271Y542617D01*
X988459Y540559D01*
X989721Y539297D01*
X967775Y517351D01*
X965834Y519002D01*
Y536229D01*
X967486D01*
X969320Y536594D01*
X970874Y537632D01*
X986025Y552784D01*
X986147Y552717D01*
D02*
G37*
D27*
X1060450Y316230D02*
D03*
X1035050D02*
D03*
X1009650D02*
D03*
X1060450Y341630D02*
D03*
X1035050D02*
D03*
D28*
X1009650D02*
D03*
D37*
X939291Y514605D02*
X940561D01*
X927354Y526542D02*
X939291Y514605D01*
X940561D02*
X943610Y511556D01*
X974090Y596900D02*
X995680D01*
X956310Y579120D02*
X974090Y596900D01*
X995680Y571500D02*
X1046480D01*
X1071880Y596900D01*
X995680Y749300D02*
X1042924Y702056D01*
Y623570D02*
Y702056D01*
Y623570D02*
X1056640Y609854D01*
X1080008D01*
X1084326Y605536D01*
Y309880D02*
Y605536D01*
X1077976Y303530D02*
X1084326Y309880D01*
X1047750Y303530D02*
X1077976D01*
X1035050Y316230D02*
X1047750Y303530D01*
X943610Y566420D02*
X956310Y579120D01*
X943610Y548386D02*
Y566420D01*
Y548386D02*
X950976Y541020D01*
X967486D01*
X985266Y558800D01*
X1059180D01*
X1071880Y546100D01*
X943610Y511556D02*
X968756D01*
X995680Y538480D01*
Y546100D01*
X956310Y553720D02*
X974090Y571500D01*
X995680D01*
X1009650Y341630D02*
Y433070D01*
X1071880Y495300D01*
D38*
X1056700Y829570D02*
D03*
D39*
X1028700Y877570D02*
D03*
X1086700D02*
D03*
D40*
X956310Y579120D02*
D03*
Y553720D02*
D03*
D41*
Y528320D02*
D03*
D42*
X1071880Y419100D02*
D03*
Y444500D02*
D03*
Y469900D02*
D03*
Y495300D02*
D03*
Y520700D02*
D03*
Y546100D02*
D03*
Y571500D02*
D03*
Y596900D02*
D03*
Y622300D02*
D03*
Y647700D02*
D03*
Y673100D02*
D03*
Y698500D02*
D03*
Y723900D02*
D03*
Y749300D02*
D03*
X995680Y419100D02*
D03*
Y444500D02*
D03*
Y469900D02*
D03*
Y495300D02*
D03*
Y520700D02*
D03*
Y546100D02*
D03*
Y571500D02*
D03*
Y596900D02*
D03*
Y622300D02*
D03*
Y647700D02*
D03*
Y673100D02*
D03*
Y698500D02*
D03*
Y723900D02*
D03*
D43*
Y749300D02*
D03*
D44*
X927354Y526542D02*
D03*
M02*
